<svg height="496pt" viewBox="0 0 496 496" width="496pt" xmlns="http://www.w3.org/2000/svg"><path d="m488 207.84375c4.425781 0 8-3.585938 8-8v-32c0-4.417969-3.574219-8-8-8h-32v-24c0-4.417969-3.574219-8-8-8h-8v-32h8c3.273438 0 6.207031-1.992188 7.433594-5.023438l16-40c.980468-2.464843.679687-5.257812-.808594-7.457031-.121094-.175781-.289062-.3125-.417969-.480469l.039063-.03125-32-40c-3.046875-3.800781-9.453125-3.800781-12.492188 0l-32 40 .039063.03125c-.136719.167969-.296875.296876-.417969.480469-1.488281 2.199219-1.789062 4.992188-.808594 7.457031l16 40c1.226563 3.03125 4.160156 5.023438 7.433594 5.023438h8v32h-8c-4.425781 0-8 3.582031-8 8v24h-136v-24c0-4.417969-3.574219-8-8-8h-8v-32h8c3.273438 0 6.207031-1.992188 7.433594-5.023438l16-40c.980468-2.464843.679687-5.257812-.808594-7.457031-.121094-.175781-.289062-.3125-.417969-.480469l.039063-.03125-32-40c-3.046875-3.800781-9.453125-3.800781-12.492188 0l-32 40 .039063.03125c-.136719.167969-.296875.296876-.417969.480469-1.488281 2.199219-1.789062 4.992188-.808594 7.457031l16 40c1.226563 3.03125 4.160156 5.023438 7.433594 5.023438h8v32h-8c-4.425781 0-8 3.582031-8 8v24h-136v-24c0-4.417969-3.574219-8-8-8h-8v-32h8c3.273438 0 6.207031-1.992188 7.433594-5.023438l16-40c.980468-2.464843.679687-5.257812-.808594-7.457031-.121094-.175781-.289062-.3125-.417969-.480469l.039063-.03125-32-40c-3.046875-3.800781-9.445313-3.800781-12.492188-.007812l-32 40 .039063.039062c-.136719.167969-.296875.296876-.417969.480469-1.488281 2.191407-1.789062 4.984375-.808594 7.457031l16 40c1.226563 3.03125 4.160156 5.023438 7.433594 5.023438h8v32h-8c-4.425781 0-8 3.582031-8 8v24h-32c-4.425781 0-8 3.582031-8 8v32c0 4.414062 3.574219 8 8 8h16v64h-16c-4.425781 0-8 3.574219-8 8v208c0 3.230469 1.945312 6.160156 4.9375 7.390625 2.992188 1.242187 6.429688.550781 8.71875-1.734375l20.6875-20.6875c5.703125-5.707031 13.59375-8.96875 21.65625-8.96875s15.953125 3.261719 21.65625 8.96875l9.375 9.375c8.679688 8.679688 20.695312 13.65625 32.96875 13.65625s24.289062-4.976562 32.96875-13.65625l9.375-9.375c5.703125-5.707031 13.59375-8.96875 21.65625-8.96875s15.953125 3.261719 21.65625 8.96875l9.375 9.375c8.679688 8.679688 20.695312 13.65625 32.96875 13.65625s24.289062-4.976562 32.96875-13.65625l9.375-9.375c5.703125-5.707031 13.59375-8.96875 21.65625-8.96875s15.953125 3.261719 21.65625 8.96875l9.375 9.375c8.679688 8.679688 20.695312 13.65625 32.96875 13.65625s24.289062-4.976562 32.96875-13.65625l9.375-9.375c5.703125-5.707031 13.59375-8.96875 21.65625-8.96875s15.953125 3.261719 21.65625 8.96875l20.6875 20.6875c1.527344 1.527344 3.578125 2.34375 5.65625 2.34375 1.03125 0 2.070312-.191406 3.0625-.609375 2.992188-1.230469 4.9375-4.160156 4.9375-7.390625v-208c0-4.425781-3.574219-8-8-8h-16v-64zm-56-187.191406 15.351562 19.191406h-30.710937zm-20.183594 35.191406h40.375l-9.597656 24h-21.167969zm-163.816406-35.191406 15.351562 19.191406h-30.710937zm-20.183594 35.191406h40.375l-9.597656 24h-21.167969zm-163.816406-35.191406 15.351562 19.191406h-30.703124zm-20.183594 35.191406h40.375l-9.597656 24h-21.179688zm380.183594 88h16v16h-16zm-184 0h16v16h-16zm-184 0h16v16h-16zm-40 32h464v16h-464zm376 96v-64h32v64zm-288-64v64h-32v-64zm16 0h16v64h-16zm32 0h32v64h-32zm48 0h16v64h-16zm32 0h32v64h-32zm48 0h16v64h-16zm32 0h32v64h-32zm48 0h16v64h-16zm-320 0h16v64h-16zm440 212.6875-7.03125-7.03125c-6.777344-6.777344-15.59375-11.257812-24.96875-12.914062v-8.742188c0-30.871094-25.128906-56-56-56s-56 25.128906-56 56v14.734375c-7.214844-4.320313-15.527344-6.734375-24-6.734375-2.695312 0-5.367188.277344-8 .742188v-8.742188c0-30.871094-25.128906-56-56-56s-56 25.128906-56 56v8.742188c-2.632812-.464844-5.304688-.742188-8-.742188-8.472656 0-16.792969 2.414062-24 6.734375v-14.734375c0-30.871094-25.128906-56-56-56s-56 25.128906-56 56v8.742188c-9.375 1.65625-18.191406 6.136718-24.96875 12.914062l-7.03125 7.03125v-100.6875h464zm-48-19.945312c-9.375 1.65625-18.191406 6.136718-24.96875 12.914062l-9.375 9.375c-5.703125 5.703125-13.59375 8.96875-21.65625 8.96875s-15.953125-3.265625-21.65625-8.96875l-2.34375-2.34375v-28.6875c0-22.058594 17.945312-40 40-40s40 17.941406 40 40zm-144 5.992187c-3.238281 1.945313-6.28125 4.226563-8.96875 6.921875l-9.375 9.375c-5.703125 5.703125-13.59375 8.96875-21.65625 8.96875s-15.953125-3.265625-21.65625-8.96875l-9.375-9.375c-2.6875-2.6875-5.730469-4.976562-8.96875-6.921875v-14.734375c0-22.058594 17.945312-40 40-40s40 17.941406 40 40zm-144 13.953125-2.34375 2.34375c-5.703125 5.703125-13.59375 8.96875-21.65625 8.96875s-15.953125-3.265625-21.65625-8.96875l-9.375-9.375c-6.777344-6.777344-15.59375-11.257812-24.96875-12.914062v-8.742188c0-22.058594 17.945312-40 40-40s40 17.941406 40 40zm328.96875 40.96875c-8.679688-8.679688-20.695312-13.65625-32.96875-13.65625s-24.289062 4.976562-32.96875 13.65625l-9.375 9.375c-5.703125 5.703125-13.59375 8.96875-21.65625 8.96875s-15.953125-3.265625-21.65625-8.96875l-9.375-9.375c-8.679688-8.679688-20.695312-13.65625-32.96875-13.65625s-24.289062 4.976562-32.96875 13.65625l-9.375 9.375c-5.703125 5.703125-13.59375 8.96875-21.65625 8.96875s-15.953125-3.265625-21.65625-8.96875l-9.375-9.375c-8.679688-8.679688-20.695312-13.65625-32.96875-13.65625s-24.289062 4.976562-32.96875 13.65625l-9.375 9.375c-5.703125 5.703125-13.59375 8.96875-21.65625 8.96875s-15.953125-3.265625-21.65625-8.96875l-9.375-9.375c-8.679688-8.679688-20.695312-13.65625-32.96875-13.65625s-24.289062 4.976562-32.96875 13.65625l-7.03125 7.03125v-25.375l18.34375-18.34375c5.703125-5.707031 13.59375-8.96875 21.65625-8.96875s15.953125 3.261719 21.65625 8.96875l9.375 9.375c8.679688 8.679688 20.695312 13.65625 32.96875 13.65625s24.289062-4.976562 32.96875-13.65625l9.375-9.375c5.703125-5.707031 13.59375-8.96875 21.65625-8.96875s15.953125 3.261719 21.65625 8.96875l9.375 9.375c8.679688 8.679688 20.695312 13.65625 32.96875 13.65625s24.289062-4.976562 32.96875-13.65625l9.375-9.375c5.703125-5.707031 13.59375-8.96875 21.65625-8.96875s15.953125 3.261719 21.65625 8.96875l9.375 9.375c8.679688 8.679688 20.695312 13.65625 32.96875 13.65625s24.289062-4.976562 32.96875-13.65625l9.375-9.375c5.703125-5.707031 13.59375-8.96875 21.65625-8.96875s15.953125 3.261719 21.65625 8.96875l18.34375 18.34375v25.375zm7.03125-157.65625h-464v-16h464zm-24-32h-16v-64h16zm0 0"/></svg>