<svg xmlns="http://www.w3.org/2000/svg" height="884pt" version="1.1" viewBox="0 -95 884.99775 884" width="884pt">
<g id="surface1">
<path d="M 354 162.75 L 383.5 162.75 L 383.5 192.246094 L 354 192.246094 Z M 354 162.75 " style=" stroke:none;fill-rule:nonzero;fill:rgb(0%,0%,0%);fill-opacity:1;" />
<path d="M 796.496094 221.75 L 796.496094 179.328125 L 808.019531 133.25 L 825.996094 133.25 L 825.996094 103.75 L 590 103.75 L 590 74.25 L 560.5 74.25 L 560.5 103.75 L 531 103.75 L 531 74.25 L 501.5 74.25 L 501.5 103.75 L 457.25 103.75 L 457.25 84.898438 C 466.347656 79.671875 471.96875 69.988281 472 59.5 C 471.964844 56.949219 471.59375 54.414062 470.890625 51.960938 L 482.425781 40.425781 C 485.195312 37.664062 486.75 33.910156 486.753906 30 L 486.753906 0.5 L 457.253906 0.5 L 457.253906 23.890625 L 450.042969 31.101562 C 445.121094 29.628906 439.886719 29.628906 434.964844 31.101562 L 427.753906 23.890625 L 427.753906 0.5 L 398.253906 0.5 L 398.253906 30 C 398.253906 33.910156 399.804688 37.660156 402.574219 40.425781 L 414.105469 51.960938 C 413.410156 54.414062 413.039062 56.949219 413 59.5 C 413.027344 69.992188 418.65625 79.671875 427.753906 84.898438 L 427.753906 103.75 L 383.5 103.75 L 383.5 74.25 L 354.003906 74.25 L 354.003906 103.75 L 324.496094 103.75 L 324.496094 74.25 L 295.003906 74.25 L 295.003906 103.75 L 59 103.75 L 59 133.25 L 76.980469 133.25 L 88.5 179.328125 L 88.5 221.746094 L 0 221.746094 L 0 251.246094 L 17.976562 251.246094 L 29.5 297.324219 L 29.5 339.746094 L 0 339.746094 L 0 369.246094 L 29.5 369.246094 L 29.5 664.246094 L 0 664.246094 L 0 693.746094 L 884.996094 693.746094 L 884.996094 664.246094 L 855.496094 664.246094 L 855.496094 369.246094 L 884.996094 369.246094 L 884.996094 339.746094 L 855.496094 339.746094 L 855.496094 297.328125 L 867.019531 251.25 L 884.996094 251.25 L 884.996094 221.75 Z M 590 192.25 L 766.996094 192.25 L 766.996094 221.75 L 590 221.75 Z M 770.230469 162.75 L 590 162.75 L 590 133.25 L 777.605469 133.25 Z M 560.5 177.496094 L 560.5 221.75 L 324.496094 221.75 L 324.496094 133.25 L 560.5 133.25 Z M 294.996094 133.25 L 294.996094 162.75 L 114.769531 162.75 L 107.394531 133.25 Z M 118 192.25 L 294.996094 192.25 L 294.996094 221.75 L 118 221.75 Z M 825.996094 339.746094 L 59 339.746094 L 59 310.246094 L 825.996094 310.246094 Z M 825.996094 605.25 L 796.496094 605.25 L 796.496094 369.246094 L 825.996094 369.246094 Z M 88.5 605.25 L 59 605.25 L 59 369.246094 L 88.5 369.246094 Z M 118 369.246094 L 176.996094 369.246094 L 176.996094 664.246094 L 118 664.246094 Z M 206.5 369.246094 L 236.003906 369.246094 L 236.003906 605.25 L 206.5 605.25 Z M 265.496094 369.246094 L 324.496094 369.246094 L 324.496094 664.246094 L 265.503906 664.246094 L 265.503906 369.246094 Z M 354 369.246094 L 383.5 369.246094 L 383.5 605.25 L 354 605.25 Z M 413 369.246094 L 472 369.246094 L 472 664.246094 L 413 664.246094 Z M 501.5 369.246094 L 531 369.246094 L 531 605.25 L 501.5 605.25 Z M 560.5 369.246094 L 619.496094 369.246094 L 619.496094 664.246094 L 560.5 664.246094 Z M 648.996094 369.246094 L 678.496094 369.246094 L 678.496094 605.25 L 648.996094 605.25 Z M 708.007812 369.246094 L 766.996094 369.246094 L 766.996094 664.246094 L 708.007812 664.246094 Z M 59 664.246094 L 59 634.75 L 88.5 634.75 L 88.5 664.246094 Z M 206.5 664.246094 L 206.5 634.75 L 236.003906 634.75 L 236.003906 664.246094 Z M 354 664.246094 L 354 634.75 L 383.5 634.75 L 383.5 664.246094 Z M 501.5 664.246094 L 501.5 634.75 L 531 634.75 L 531 664.246094 Z M 648.996094 664.246094 L 648.996094 634.75 L 678.496094 634.75 L 678.496094 664.246094 Z M 796.496094 664.246094 L 796.496094 634.75 L 825.996094 634.75 L 825.996094 664.246094 Z M 829.230469 280.746094 L 55.769531 280.746094 L 48.390625 251.246094 L 836.609375 251.246094 Z M 829.230469 280.746094 " style=" stroke:none;fill-rule:nonzero;fill:rgb(0%,0%,0%);fill-opacity:1;" />
<path d="M 427.753906 162.75 L 457.25 162.75 L 457.25 192.246094 L 427.753906 192.246094 Z M 427.753906 162.75 " style=" stroke:none;fill-rule:nonzero;fill:rgb(0%,0%,0%);fill-opacity:1;" />
<path d="M 501.5 162.75 L 531 162.75 L 531 192.246094 L 501.5 192.246094 Z M 501.5 162.75 " style=" stroke:none;fill-rule:nonzero;fill:rgb(0%,0%,0%);fill-opacity:1;" />
</g>
</svg>