<?xml version="1.0" encoding="iso-8859-1"?>
<!-- Generator: Adobe Illustrator 19.0.0, SVG Export Plug-In . SVG Version: 6.00 Build 0)  -->
<svg version="1.1" id="Capa_1" xmlns="http://www.w3.org/2000/svg" xmlns:xlink="http://www.w3.org/1999/xlink" x="0px" y="0px"
	 viewBox="0 0 496 496" style="enable-background:new 0 0 496 496;" xml:space="preserve">
<g>
	<g>
		<g>
			<path d="M248,181.664L137.584,272h220.832L248,181.664z M248,202.336L313.584,256H182.416L248,202.336z"/>
			<path d="M424,232v-56v-8v-56h-14.56l6.448-38.688L416,56c0-10.416-6.712-19.216-16-22.528V0h-16v33.472
				c-9.296,3.312-16,12.112-16,22.528v16l6.576,40h-6.984c-3.44-51.864-39.888-94.712-88.536-107.776l-0.112-0.192l-0.192,0.112
				C268.92,1.528,258.648,0,248,0s-20.92,1.528-30.752,4.144l-0.192-0.112l-0.112,0.192C168.296,17.288,131.848,60.136,128.408,112
				h-6.96l6.448-38.688L128,56c0-10.416-6.712-19.216-16-22.528V0H96v33.472C86.704,36.784,80,45.584,80,56v16l6.576,40H72v56v8v56
				H0v264h496V232H424z M384,56c0-4.416,3.584-8,8-8c4.416,0,8,3.584,8,8v8h-16V56z M398.552,80l-5.328,32h-2.448l-5.336-32H398.552
				z M368,128h40v40h-40V128z M408,184v16h-16v16h16v42.032L356.632,216H376v-16h-38.92l-19.552-16H408z M351.6,112h-39.864
				c-0.2-5.352-0.576-10.688-1.16-16h38.52C350.328,101.2,351.176,106.536,351.6,112z M343.976,80H308.24
				c-1.512-8.112-3.52-16.112-5.936-24H329.8C335.52,63.296,340.344,71.328,343.976,80z M314.352,40H296.76
				c-1.976-5.04-4.104-10.024-6.456-14.912C299.008,28.984,307.104,33.976,314.352,40z M256,16.408
				c4.248,0.328,8.448,0.824,12.536,1.648l0.736,1.288c3.824,6.688,7.176,13.608,10.2,20.656H256V16.408z M256,56h29.608
				c2.608,7.864,4.744,15.88,6.376,24H256V56z M256,96h38.504c0.632,5.304,1.016,10.648,1.232,16H256V96z M226.72,19.344
				l0.736-1.288c4.096-0.824,8.296-1.328,12.544-1.648V40h-23.472C219.552,32.952,222.904,26.032,226.72,19.344z M240,56v24h-35.984
				c1.632-8.12,3.76-16.136,6.376-24H240z M240,96v16h-39.736c0.216-5.352,0.6-10.696,1.232-16H240z M205.688,25.088
				c-2.352,4.888-4.472,9.872-6.448,14.912h-17.6C188.888,33.976,196.984,28.984,205.688,25.088z M166.192,56h27.504
				c-2.416,7.888-4.424,15.888-5.936,24h-35.736C155.648,71.328,160.472,63.296,166.192,56z M146.904,96h38.52
				c-0.592,5.312-0.968,10.648-1.16,16h-39.856C144.824,106.536,145.672,101.2,146.904,96z M144,128h208v40h-54.032l-39.112-32
				h-21.72l-39.112,32H144V128z M96,56c0-4.416,3.584-8,8-8s8,3.584,8,8v8H96V56z M110.552,80l-5.328,32h-2.448L97.44,80H110.552z
				 M88,128h40v40H88V128z M88,184h90.472l-19.552,16H88V184z M88,248v-16v-16h51.368L88,258.032V248z M242.856,152h10.28
				L424,291.792V296H72v-4.208L242.856,152z M16,248h56v23.12L61.144,280H16V248z M80,448h-8v32H16V296h40v16h16v32h8V448z M120,480
				H88v-16h32V480z M96,448V344h16v104H96z M120,328H88v-16h32V328z M176,448h-8v32h-32v-32h-8V344h8v-32h32v32h8V448z M216,480h-32
				v-16h32V480z M192,448V344h16v104H192z M216,328h-32v-16h32V328z M272,448h-8v32h-32v-32h-8V344h8v-32h32v32h8V448z M312,480h-32
				v-16h32V480z M288,448V344h16v104H288z M312,328h-32v-16h32V328z M368,448h-8v32h-32v-32h-8V344h8v-32h32v32h8V448z M408,480h-32
				v-16h32V480z M384,448V344h16v104H384z M408,328h-32v-16h32V328z M480,480h-56v-32h-8V344h8v-32h16v-16h40V480z M480,280h-45.144
				L424,271.12V248h56V280z"/>
		</g>
	</g>
</g>
<g>
</g>
<g>
</g>
<g>
</g>
<g>
</g>
<g>
</g>
<g>
</g>
<g>
</g>
<g>
</g>
<g>
</g>
<g>
</g>
<g>
</g>
<g>
</g>
<g>
</g>
<g>
</g>
<g>
</g>
</svg>
